<?xml version="1.0" encoding="UTF-8"?>
<!DOCTYPE svg PUBLIC "-//W3C//DTD SVG 1.1//EN" "http://www.w3.org/Graphics/SVG/1.1/DTD/svg11.dtd">
<!-- Creator: CorelDRAW -->
<svg xmlns="http://www.w3.org/2000/svg" xml:space="preserve" width="13.8465mm" height="8.6359mm" style="shape-rendering:geometricPrecision; text-rendering:geometricPrecision; image-rendering:optimizeQuality; fill-rule:evenodd; clip-rule:evenodd"
viewBox="0 0 9.63058 6.00648"
 xmlns:xlink="http://www.w3.org/1999/xlink">
 <defs>
  <style type="text/css">
   <![CDATA[
    .fil1 {fill:#373435}
    .fil3 {fill:#373435}
    .fil0 {fill:#373435;fill-rule:nonzero}
    .fil2 {fill:#373435;fill-rule:nonzero}
   ]]>
  </style>
 </defs>
 <g id="Layer_x0020_1">
  <metadata id="CorelCorpID_0Corel-Layer"/>
  <path class="fil0" d="M7.70801 2.26783l0 -1.96326 0.516357 0 0.741568 1.00976c0.0141887,0.0205875 0.0375583,0.0618321 0.0705262,0.124082 0.032481,0.0622494 0.0681614,0.135905 0.107528,0.221942 -0.0105024,-0.0814459 -0.0182923,-0.15378 -0.0233696,-0.217351 -0.00500778,-0.0632232 -0.00730301,-0.119491 -0.00730301,-0.168943l0 -0.969491 0.513575 0 0 1.96326 -0.513575 0 -0.741499 -1.01394c-0.0151624,-0.0205875 -0.0389494,-0.0617626 -0.0719172,-0.124012 -0.032481,-0.0622494 -0.0677441,-0.135071 -0.106207,-0.219299 0.010572,0.0824196 0.0183618,0.155171 0.0233696,0.218812 0.00500778,0.0632232 0.00730301,0.119491 0.00730301,0.168943l0 0.969491 -0.516357 0zm-7.26809 2.55118l0 -1.49913 -0.439919 0 0 -0.464123 1.41491 0 0 0.464123 -0.439919 0 0 1.49913 -0.535067 0zm3.52742 -1.96326l0.533745 0 0 0.954816c0,0.140496 0.00361673,0.241277 0.0105024,0.302623 0.00737256,0.0608584 0.019266,0.112119 0.0366541,0.153294 0.0201007,0.0499387 0.0562679,0.0883316 0.107041,0.114901 0.0508428,0.0260822 0.113092,0.0393667 0.186331,0.0393667 0.0732387,0 0.135071,-0.0132845 0.185844,-0.0393667 0.050356,-0.026569 0.0865232,-0.064962 0.107598,-0.114901 0.0173881,-0.041175 0.0292816,-0.0924352 0.0365846,-0.153294 0.00688569,-0.0613453 0.010572,-0.162127 0.010572,-0.302623l0 -0.134097 0 -0.820719 0.532354 0 0 1.03814c0,0.215126 -0.0127976,0.373983 -0.0389494,0.476504 -0.0260822,0.10252 -0.0695524,0.18953 -0.131385,0.262282 -0.0667703,0.0792202 -0.159275,0.139174 -0.275984,0.178958 -0.117196,0.0398535 -0.2595,0.0595369 -0.426635,0.0595369 -0.167969,0 -0.310343,-0.0196833 -0.427052,-0.0595369 -0.116709,-0.039784 -0.209214,-0.0997382 -0.276958,-0.178958 -0.0608584,-0.0727519 -0.104329,-0.159762 -0.130898,-0.262282 -0.0260822,-0.10252 -0.0393667,-0.261378 -0.0393667,-0.476504l0 -0.204136 0 -0.834003zm3.57639 0.0759513l0 0.585006c-0.0732387,-0.0814459 -0.146547,-0.140983 -0.219299,-0.178958 -0.0727519,-0.0380452 -0.151068,-0.0572417 -0.233905,-0.0572417 -0.15378,0 -0.278279,0.0526512 -0.373497,0.157467 -0.0952173,0.105233 -0.142861,0.242182 -0.142861,0.411055 0,0.157467 0.0485476,0.287947 0.145573,0.391789 0.0970952,0.103981 0.22062,0.155658 0.370784,0.155658 0.082837,0 0.161153,-0.0191965 0.233905,-0.0572417 0.0727519,-0.0379756 0.14606,-0.0979298 0.219299,-0.180349l0 0.586397c-0.0852017,0.0407577 -0.16936,0.0718477 -0.253588,0.0925047 -0.0838107,0.0205875 -0.168943,0.0306726 -0.254562,0.0306726 -0.107528,0 -0.206432,-0.0127976 -0.297058,-0.0384625 -0.0906268,-0.025178 -0.174368,-0.0640578 -0.250389,-0.115805 -0.146477,-0.0984167 -0.258179,-0.222011 -0.335104,-0.371271 -0.0768554,-0.149677 -0.115318,-0.317646 -0.115318,-0.504394 0,-0.150164 0.0242738,-0.286556 0.0732387,-0.409733 0.0485476,-0.123108 0.122204,-0.234322 0.22062,-0.334617 0.0929221,-0.0956346 0.197738,-0.167065 0.314516,-0.214639 0.116222,-0.0471566 0.246216,-0.071013 0.389494,-0.071013 0.0856191,0 0.170751,0.0100851 0.254562,0.0307422 0.084228,0.0205875 0.168386,0.0516775 0.253588,0.0924352zm0.302066 1.88731l0 -1.96326 0.535136 0 0 0.76306 0.713191 0 0 -0.76306 0.536458 0 0 1.96326 -0.536458 0 0 -0.799227 -0.713191 0 0 0.799227 -0.535136 0z"/>
  <path class="fil1" d="M2.86737 4.82089l-0.0105024 0.0359586c-0.0107111,0.0347067 -0.0683005,0.15392 0.0207266,0.143695 0.0402709,-0.00472957 0.055642,-0.0893053 0.0720563,-0.145225l0.00166926 -0.0055642c-0.00737256,0.0127976 -0.0153711,0.0246911 -0.024552,0.0343589 -0.012589,-0.0109893 -0.0335938,-0.033872 -0.0593978,-0.0632232zm0.155241 -0.813833c-0.00194747,-0.0422183 -0.0293511,-0.199894 -0.0399231,-0.238634 -0.0218395,-0.081585 -0.0553637,-0.12742 -0.103494,-0.185288 -0.0137018,-0.0163448 -0.0356804,-0.0339416 -0.0606497,-0.050356l-0.0495213 0.0731692c0.0545987,0.0392971 0.0970952,0.0951477 0.11963,0.161849 0.012589,0.0375583 0.0180141,0.0749775 0.0261517,0.118448 0.00667703,0.0368628 0.00980689,0.0929916 0.0189878,0.122691 0,0.0283078 0.00326896,0.0593282 0.00639882,0.0886098 0.0270559,-0.0296293 0.0551551,-0.0602324 0.0824196,-0.0904877zm-0.458281 -0.550368c-0.0724736,0.000347762 -0.143069,0.0140496 -0.155797,0.0468088 -0.0108502,0.0277514 0.0029212,0.0751166 0.0662139,0.056407 0.0301858,-0.0338025 0.0622494,-0.0714304 0.0895835,-0.103216zm0.913641 0.0351935c-0.0176663,-0.0406882 -0.0383929,-0.0803331 -0.0572417,-0.111771 -0.0270559,-0.0454177 -0.0557115,-0.0883316 -0.0888185,-0.127768l-0.0330374 -0.039158c-0.0123108,-0.0135627 -0.0230219,-0.0228828 -0.0358891,-0.0360977l-0.0767859 -0.067605c-0.0176663,-0.0135627 -0.0260822,-0.019892 -0.0445136,-0.0333156l-0.00528599 -0.00375583c-0.009946,0.0128672 -0.023926,0.0295598 -0.0431921,0.0573808l-0.00911137 0.0132845c0.0374192,0.0261517 0.0721259,0.0552246 0.103703,0.086871 0.0317855,0.0317855 0.0585632,0.0579372 0.0873579,0.0930612 0.0548073,0.0674659 0.104398,0.160388 0.13681,0.245033 0.0112675,-0.0127281 0.0224654,-0.0254562 0.0333156,-0.0384625 0.0106415,-0.0127281 0.0215613,-0.0252475 0.0326896,-0.0376974zm0.0117544 0.450213c0.00723345,0.0744211 0.0123108,0.131106 0.0550855,0.131037 0.0584936,-0.000139105 0.0428443,-0.0639187 0.0387407,-0.111284 -0.00201702,-0.021909 -0.0124499,-0.103564 -0.0196833,-0.131593 -0.0248998,0.0372801 -0.04973,0.0745602 -0.0741429,0.11184zm-0.502864 -0.95725c-0.241417,-0.113231 -0.511628,-0.114275 -0.765007,-0.023926 -0.0607193,0.021909 -0.0463219,0.0690656 -0.0259431,0.0833934 0.0385321,0.0271255 0.171377,-0.0608584 0.365498,-0.0604411 0.128881,0.000486867 0.252197,0.0257344 0.362438,0.0715695l0.0630145 -0.0705957zm-0.258526 -0.217351c0,0.0528599 0.0788029,0.0500082 0.180975,0.0799853 0.0415228,0.0121717 0.0932003,0.0339416 0.145991,0.0606497l0.0618321 -0.0693438c-0.0488954,-0.0263604 -0.097443,-0.0484085 -0.13827,-0.0609279l-0.211996 -0.0548769c-0.0215613,0 -0.0385321,0.0207962 -0.0385321,0.0445136zm0.429208 0.197946c0.0520252,0.0322723 0.0989036,0.0666312 0.130411,0.0978603l0.100086 0.0998773c0.0557811,0.060302 0.120256,0.160527 0.16317,0.24865 0.021283,-0.023161 0.0429834,-0.047087 0.0646838,-0.0725432 -0.0454873,-0.0887489 -0.0993904,-0.157745 -0.164839,-0.23933 -0.0323419,-0.0405491 -0.0902095,-0.090905 -0.13215,-0.126585 -0.0409664,-0.035124 -0.0998078,-0.0758817 -0.161501,-0.111979l0.000139105 0.10405zm0.485128 0.747619c0.00403404,0.0289338 0.00772032,0.0621103 0.0124499,0.105233 0.00813764,0.0749775 -0.020518,0.0406186 0.0340807,0.0991122l0.0221872 0c0.0194051,-0.0262213 0.0333852,-0.0372801 0.0333852,-0.0555724 0,-0.0940349 -0.0118935,-0.177359 -0.0307422,-0.254214l-0.0713608 0.105442zm-1.76218 0.257553c-0.0358195,-0.201772 0.0366541,-0.390259 0.156563,-0.544735 0.0989036,-0.127281 0.289895,-0.235574 0.468783,-0.247676 0.0798462,-0.00500778 0.144252,-0.00674659 0.216865,0.0114066 0.0335938,0.00813764 0.0634318,0.0220481 0.0846453,-0.0100156 0.0750471,-0.112675 -0.299006,-0.106554 -0.452647,-0.0635014 -0.101268,0.0285861 -0.193564,0.0794289 -0.274176,0.142374 -0.174716,0.137644 -0.296363,0.376905 -0.296711,0.597455 0,0.0454873 0.0055642,0.0767859 0.0055642,0.114901 0.00660748,0.0322723 0.00973734,0.0708739 0.0162057,0.10259 0.00758122,0.0372106 0.00806808,0.0667008 0.01398,0.108154 0.00319941,0.0217004 0.00445136,0.0433312 0.00459046,0.0647533l0.0303249 0.0161362c0.00987645,-0.0159275 0.0312986,-0.0417315 0.057033,-0.0708044l-0.000208657 -0.00194747c-0.00243434,-0.0294902 -0.0070248,-0.0683005 -0.0116153,-0.0993209 -0.00410359,-0.0296293 -0.0150233,-0.069622 -0.0157189,-0.103007l-0.00347762 -0.0167621zm-0.123664 0.652889c-0.0148842,0.0488954 -0.0171795,0.0803331 0.0230914,0.0875665 0.0164839,0.0029212 0.0290034,-0.00257344 0.0388103,-0.0130063 -0.0205875,-0.0228132 -0.0415228,-0.050356 -0.0619017,-0.0745602zm-0.233974 -1.25041c0,0.033107 0.0306726,0.0542509 0.0565461,0.045696 0.027195,-0.00932003 0.0374192,-0.039158 0.0489649,-0.0625972 0.0137714,-0.0276819 0.0260126,-0.0426356 0.0420097,-0.068996 0.0160666,-0.0264299 0.0299771,-0.0455568 0.0475739,-0.068996 0.164352,-0.219438 0.442701,-0.381704 0.715416,-0.412237 0.167274,-0.0189878 0.136601,0.00563375 0.172629,-0.0552246l-0.0389494 -0.044444c-0.249902,0 -0.523382,0.0952868 -0.712147,0.248928 -0.0342894,0.0276123 -0.0317159,0.0326201 -0.0422879,0.0409664l-0.0273341 0.0177359c-0.0328288,0.0273341 -0.120048,0.124151 -0.142583,0.156841 -0.015858,0.0227436 -0.0280296,0.0393667 -0.0431225,0.0621103 -0.0134932,0.0203789 -0.0767163,0.119282 -0.0767163,0.140218zm0.564766 0.322028c0.021909,-0.0242738 0.121995,-0.333226 0.490484,-0.333226 0.0232305,0 0.0457655,0.0013215 0.0676745,0.00389494 0.0221872,-0.0261517 0.0460437,-0.052999 0.0705262,-0.0799158 -0.146477,-0.0329679 -0.308326,-0.0137714 -0.435537,0.0616235 -0.057033,0.0336634 -0.123456,0.0861059 -0.167482,0.138131 -0.0425661,0.0502169 -0.0998078,0.14147 -0.112605,0.205736 -0.0207266,0.0348458 -0.0268472,0.122204 -0.0321332,0.172003 -0.00118239,0.0111979 0.00486867,0.0785943 0.00744211,0.0953564 0.00507733,0.0346371 0.00855495,0.0582154 0.0148842,0.0904877 0.00236478,0.0118239 0.00466001,0.0283774 0.00674659,0.0476434 0.0226741,-0.0246911 0.0429834,-0.0469479 0.0563375,-0.0625972l0.0210048 -0.0238565c-0.0121021,-0.0720563 -0.0214917,-0.149051 -0.00639882,-0.230566 0.00403404,-0.0210744 0.0199616,-0.0656575 0.0190574,-0.0847149zm0.786499 -0.24406c0.0148147,0.0107111 0.0287252,0.0221872 0.0415228,0.0342894l0.0497995 0.050356c0.0433312,0.045696 0.0806808,0.0402709 0.0930612,0.000139105 0.0112675,-0.0367237 -0.0484781,-0.0863146 -0.081585,-0.117057 -0.0140496,-0.013215 -0.0358891,-0.0290034 -0.0528599,-0.0408968l-0.0499387 0.0731692zm-1.21995 0.119769c-0.0127976,-0.00027821 -0.00911137,-0.00535554 -0.00911137,0.0109893 -0.0262908,0.0356108 -0.0392971,0.179515 -0.0453482,0.234739 -0.0120326,0.113996 0.00827674,0.212483 0.0223959,0.319107 0.0264995,0.0153015 0.0577981,0.0330374 0.0948695,0.0535554l0.00417315 0.00222568c-0.00751166,-0.0754644 -0.0236478,-0.141887 -0.0320637,-0.25171 -0.00180836,-0.0230219 -0.00577285,-0.0359586 -0.00542509,-0.0670486 0.00125194,-0.0657966 0.0191269,-0.185427 0.0397144,-0.249276 0.00612061,-0.0182227 0.0165535,-0.035124 0.0125194,-0.0561288 0.0223263,-0.0166926 0.0527208,-0.143208 0.168943,-0.27355 0.0566157,-0.0637796 0.0381147,-0.0468088 0.111145,-0.111075 0.0164839,-0.0143974 0.0514688,-0.0333156 0.0591196,-0.0522339 0.0131454,-0.0338025 -0.0100156,-0.0639882 -0.041175,-0.0632927 -0.0212135,0.00055642 -0.0504951,0.0285165 -0.0660053,0.0399927 -0.106276,0.0788725 -0.215682,0.225767 -0.269098,0.341642 -0.0146756,0.0319246 -0.0495213,0.0879838 -0.0446527,0.122065zm-0.037767 0.893262l-0.00139105 0.00653793c-0.00646838,0.0302553 -0.0150233,0.0881925 0.0402709,0.0838107 0.0129368,-0.000973734 0.0221177,-0.00625972 0.0288643,-0.0141887 -0.010572,-0.0123108 -0.0214222,-0.0247607 -0.0335938,-0.0378365 -0.00792898,-0.0084854 -0.0196833,-0.0217699 -0.0341502,-0.0383234zm1.634 -0.789072c0.0185009,-0.00785943 0.0459046,-0.00605106 0.0723345,-0.00577285l0.0129368 -0.0143974c-0.0155102,-0.0987645 -0.134862,-0.279323 -0.2145,-0.35284 -0.0148842,-0.0138409 -0.056407,-0.0481303 -0.0943827,-0.0751862l-0.011337 0.0166926 -0.0384625 0.0564766c0.101825,0.0703871 0.191965,0.17868 0.241486,0.293442 0.0118239,0.0270559 0.0179445,0.0564766 0.0319246,0.081585zm-1.75529 0.153224c0,-0.156006 0.0870797,-0.296293 0.00486867,-0.305544 -0.0533467,-0.00584241 -0.0585632,0.0602324 -0.0710826,0.122899 -0.00925047,0.0463915 -0.0226045,0.125542 -0.0226045,0.177011 0,0.0949391 0.00306031,0.167343 0.0149538,0.241556 0.0348458,-0.0154406 0.0440962,-0.0179445 0.0920874,0.00841585 -0.0139105,-0.0767859 -0.0182227,-0.15072 -0.0182227,-0.244338zm2.01633 0.416619l0 0.172281 0.0445136 0.0445136 0.0443745 -0.0445136 0 -0.188765 -0.0333156 -0.0333156c-0.0325505,0 -0.0555724,0.011337 -0.0555724,0.0497995zm-1.63094 -0.274245c-0.011963,0.00966779 -0.00973734,-0.0118935 -0.00987645,0.0111979l-0.0310899 -0.0111979 -0.0501473 0.000208657m1.62196 0.27501c-6.95524e-005,-0.056407 -0.00229523,-0.114275 -0.00660748,-0.172073m-0.154337 -0.398744l0.0123108 0.0592587m0.0591891 0.47247c0.000486867,0.026569 0.000765077,0.0552942 0.000765077,0.0869406 0,0.0960519 -0.00563375,0.170334 -0.0114066,0.256649 -0.00396449,0.0601629 -0.0292816,0.151833 -0.0149538,0.175898 0.00876361,0.014606 0.0226045,0.0280992 0.0468088,0.0235783 0.0411055,-0.00744211 0.0386712,-0.0502864 0.0445831,-0.0897226 0.0182227,-0.126446 0.0236478,-0.253101 0.0236478,-0.388659l0 -0.0107111m0 -0.00354717l0 -0.00730301m-0.188696 0.146756c0.00243434,-0.0121717 0.0043818,-0.0255953 0.00591196,-0.0400622 -0.0352631,0.057033 -0.0699698,0.113996 -0.104816,0.17402 -0.00723345,0.0520252 -0.0169708,0.105024 -0.0248302,0.151624 -0.00625972,0.0376279 -0.017249,0.0875665 -0.0285861,0.127003 -0.0103633,0.0358195 -0.0242042,0.0996686 0.0351935,0.0964692 0.043818,-0.00229523 0.0471566,-0.0591891 0.0571721,-0.0983472 0.0276123,-0.110032 0.0599542,-0.295111 0.0599542,-0.410707zm-0.0375583 -0.575546c-0.00667703,-0.03575 -0.0134932,-0.06837 -0.0201007,-0.096191 -0.00737256,-0.0303944 -0.0145365,-0.0554333 -0.0527903,-0.0518861 -0.0657966,0.0057033 -0.0288643,0.0899313 -0.0168317,0.149329 0.00591196,0.0296989 0.0110588,0.0573808 0.0155102,0.0837411l0.00806808 -0.00980689 0.0661444 -0.0751862zm-0.64183 0.123664c0.00493822,0.0333156 0.0104329,0.0687178 0.0127281,0.0890967l0.00904182 0.101616 0.0907659 0.050356c-0.00104329,-0.0644751 -0.00584241,-0.127907 -0.0140496,-0.187583 -0.01398,-0.100642 -0.00521643,-0.0865928 -0.0435398,-0.137227l-0.0549464 0.0837411zm0.0116848 0.512462c-0.00730301,0.06371 -0.0176663,0.125612 -0.0310899,0.183688 -0.0201007,0.0877056 0.0562679,0.0861755 0.0765772,0.0542509 0.0106415,-0.016623 0.0211439,-0.0784552 0.0301162,-0.153224l-0.0264299 -0.0294902c-0.016623,-0.0178054 -0.0329679,-0.0363064 -0.0491736,-0.0552246zm-0.283565 -0.0234392c0.000973734,-0.00118239 0.00166926,-0.00445136 0.00215613,-0.00382538l0.00486867 -0.0183618 0.00285165 -0.0507037c-0.039158,0.0647533 -0.0787334,0.131385 -0.118796,0.20045l-0.00104329 0.0055642c-0.00973734,0.0443745 -0.0253171,0.0909746 -0.0393667,0.132915 -0.0143278,0.0429834 -0.0333156,0.0806113 -0.0501473,0.121995 -0.00521643,0.013215 -0.0230219,0.0445136 -0.0249693,0.0587718 -0.00299075,0.0217699 0.0177359,0.0449309 0.0376974,0.0476434 0.0459046,0.00625972 0.0568939,-0.0481303 0.0771337,-0.0888185 0.0420097,-0.0845062 0.117544,-0.321402 0.109615,-0.40563zm-0.0203789 -0.623468c0.00382538,-0.0196833 0.00945913,-0.039158 0.0169708,-0.0589805 0.0214917,-0.0568243 0.112188,-0.137575 0.0358195,-0.159901 -0.0380452,-0.0111284 -0.052999,0.0135627 -0.076299,0.0475043 -0.0632927,0.091531 -0.0765077,0.179376 -0.0687178,0.276262l0.0922265 -0.104885zm0.366054 1.18434c0,0.0306031 0.0292816,0.0475739 0.0557811,0.0398535 0.0294207,-0.00841585 0.030464,-0.031229 0.0411055,-0.0593978 0.0353326,-0.0932003 0.0581458,-0.165048 0.0766468,-0.24399l-0.0726127 -0.0864537c-0.0125194,0.0630145 -0.0276819,0.121925 -0.0502169,0.195442 -0.0127976,0.0423574 -0.0507037,0.131385 -0.0507037,0.154546zm-0.272298 -0.40723c-0.0109197,0.0280992 -0.0201702,0.0771337 -0.0299075,0.110658 -0.0177359,0.0621799 -0.0925047,0.243503 -0.0911137,0.256788 0.00452091,0.0333852 0.0542509,0.0573112 0.0804026,0.0213526 0.00765077,-0.0102242 0.0159971,-0.0356804 0.0222568,-0.0497995 0.0150929,-0.0340111 0.0276819,-0.0660053 0.0399231,-0.0989036 0.0125194,-0.0333852 0.0247607,-0.0703175 0.0341502,-0.104816 0.0100851,-0.0360977 0.0229523,-0.0758122 0.029838,-0.116639 0.0143278,-0.0348458 0.0283774,-0.148773 0.0360977,-0.256857l-0.0573112 -0.0719172 0.0630145 -0.102312c-0.000417315,-0.0130759 -0.00125194,-0.0240651 -0.00250389,-0.0322723 -0.00361673,-0.0238565 -0.00466001,-0.0494518 -0.00591196,-0.0747689 -0.0274037,0.0427748 -0.0548073,0.0860364 -0.0822805,0.129994l0.00264299 0.0472261 -0.00744211 0.120534 -0.031855 0.221733zm0.315907 -0.820301c0.0165535,0.0131454 0.0296293,0.0294902 0.0381843,0.0463915 0.0159971,0.031855 0.0400622,0.173881 0.0453482,0.221872 0.00055642,0.00591196 0.00055642,0.00945913 0.000834629,0.0155102 0.000695524,0.01398 0.000208657,0.0170403 0.00229523,0.0308813 0.0029212,0.0211439 0.00187792,0.0402013 0.00466001,0.061693 0.00375583,0.0277514 0.00125194,0.0646142 0.00236478,0.0970952l0.0370019 0.0205875c0.0155102,-0.0134932 0.0366541,-0.0376974 0.055642,-0.059676 -0.000973734,-0.0938958 -0.021283,-0.222011 -0.0251084,-0.244546 -0.0151624,-0.0893053 -0.0287947,-0.205945 -0.109684,-0.266873l-0.0515384 0.0770641zm-0.771406 1.02214c0,0.021909 0.0219786,0.0526512 0.0493822,0.0476434l-0.0475739 -0.0550855c-0.00111284,0.00333852 -0.00180836,0.00598151 -0.00180836,0.00744211zm0.527973 0.205388l0 0.00591196 0.0332461 0.0331765c0.0499387,0 0.0495213,-0.016623 0.0700393,-0.0742125l0.0354717 -0.0980689 -0.0445136 -0.0443745c-0.0447918,0 -0.0424965,0.031855 -0.0609975,0.0778987 -0.00932003,0.0237174 -0.0332461,0.0718477 -0.0332461,0.0996686z"/>
  <path class="fil0" d="M1.97334 4.79195c0.0126585,-0.0233001 0.025178,-0.0475043 0.0376974,-0.0717086 0.019266,-0.0372801 0.0387407,-0.074908 0.0580067,-0.108502 0.276193,-0.483042 0.521782,-0.843602 0.812998,-1.27114l0.0874274 -0.128463 0.037767 -0.0555028 0.0399927 -0.0582154 0.000208657 -0.00027821c0.0150233,-0.0217004 0.0278905,-0.0379756 0.037767,-0.0504951 0.0122412,-0.0155102 0.0165535,-0.0210048 0.0165535,-0.0365846l0.00027821 0 -0.000139105 -0.0714999 -0.193147 0.216586 -6.95524e-005 -6.95524e-005c-0.0335938,0.0392276 -0.0703175,0.0791507 -0.106972,0.119004 -0.0475043,0.051747 -0.0955651,0.10405 -0.135001,0.152737 -0.00987645,0.0122412 -0.0182923,0.0203789 -0.0267777,0.0286556l-0.000417315 0.000208657c-0.00500778,0.00486867 -0.0102938,0.009946 -0.0163448,0.0169708l-0.000208657 0.00027821 -0.0284469 0.0330374c-0.0443049,0.0515384 -0.0973734,0.11344 -0.13514,0.150929l-0.363551 0.413211 -6.95524e-005 -6.95524e-005c-0.0162753,0.0189878 -0.0404795,0.0452786 -0.0668399,0.0740038 -0.0509124,0.0553637 -0.110797,0.120534 -0.127142,0.146825l-0.0274037 0.0440962 -0.0460437 -0.0244825 -0.137505 -0.0732387 -0.000695524 -0.000208657c-0.0648924,-0.0358891 -0.116083,-0.0659357 -0.153433,-0.0877752 -0.045696,-0.0267777 -0.0678136,-0.039784 -0.0781074,-0.0420097l-0.0182923 0.00820719c-0.00883316,0.00389494 -0.0191965,0.00855495 -0.0317855,0.0136323 0.0286556,0.0353326 0.064962,0.0792898 0.102242,0.123942 0.0748384,0.0895835 0.153015,0.180767 0.180558,0.210466 0.0171099,0.0183618 0.0315768,0.0352631 0.0458351,0.0520948l-0.000139105 6.95524e-005c0.0114066,0.0134236 0.0230219,0.0269863 0.0401318,0.0455568l-0.000139105 0.000139105c0.0184314,0.0197529 0.0322028,0.0367237 0.0460437,0.0538336l0 0.000208657c0.0129368,0.0160666 0.0260822,0.0323419 0.0381843,0.0456264l0.000904182 0.00104329 0.111214 0.128881zm0.13674 -0.0206571c-0.025804,0.0500082 -0.0519557,0.100225 -0.0799853,0.145156l-0.0442354 0.0708044 -0.0484085 -0.0679527c-0.00208657,-0.00299075 -0.0071639,-0.00827674 -0.0125194,-0.0138409l-0.000208657 -0.000208657c-0.0071639,-0.00758122 -0.0149538,-0.0156493 -0.0226045,-0.0253866l-0.123316 -0.14293c-0.0145365,-0.0159971 -0.0286556,-0.0334547 -0.0424965,-0.0505646l-6.95524e-005 6.95524e-005c-0.0155102,-0.0191269 -0.0310899,-0.0383929 -0.0406186,-0.0486172l-0.000417315 -0.000208657c-0.0131454,-0.0141887 -0.0280992,-0.0317855 -0.0428443,-0.049104l-0.000208657 0c-0.0134236,-0.015858 -0.0270559,-0.0317855 -0.0423574,-0.0481998 -0.029212,-0.0315073 -0.109058,-0.124568 -0.184453,-0.214778 -0.064962,-0.0777596 -0.127837,-0.154546 -0.15385,-0.189739l-0.0477825 -0.0647533 0.0774814 -0.0219786c0.0471566,-0.0133541 0.0746993,-0.0256649 0.0937567,-0.0341502 0.0343589,-0.015232 0.0522339,-0.0232305 0.0871492,-0.0157189 0.0267777,0.00577285 0.0541814,0.021909 0.110797,0.0550855 0.0337329,0.0197529 0.0797767,0.0468088 0.150929,0.0861059l-6.95524e-005 0.000139105 0.0949391 0.0505646c0.0294902,-0.03575 0.0711521,-0.0810286 0.108293,-0.121439 0.0264299,-0.0287252 0.0506342,-0.0551551 0.0646838,-0.0715695l0.000417315 -0.000695524 0.365359 -0.415228 0.00264299 -0.00285165c0.0376279,-0.0372106 0.0881229,-0.0960519 0.130063,-0.144947l0.000208657 -0.00027821 0.0284469 -0.0330374c0.00778987,-0.00911137 0.0157189,-0.016623 0.023161,-0.0238565l-6.95524e-005 -0.000139105c0.00605106,-0.00598151 0.0123108,-0.0120326 0.0180141,-0.0190574l0.000208657 -0.000208657c0.0415228,-0.0513297 0.090905,-0.105024 0.139661,-0.158093 0.0367932,-0.0399927 0.0734474,-0.0799158 0.105024,-0.116779l0.000625972 -0.000904182 0.290173 -0.325297 0.0970257 -0.10878 0.000208657 0.145851 0.000347762 0.217282 0.00027821 0c0,0.0536249 -0.010572,0.0668399 -0.0410359,0.105442 -0.00813764,0.0103633 -0.0188487,0.0238565 -0.0332461,0.0446527l-0.0399927 0.0582154 -0.037767 0.0555028 -0.0874274 0.128463c-0.28906,0.42427 -0.532772,0.782187 -0.80813,1.26377 -0.0194051,0.0338025 -0.0376279,0.0690656 -0.0557811,0.10419z"/>
  <path class="fil0" d="M2.91752 4.79369l0.0086245 -0.0188487c0.00730301,-0.0162753 0.0146756,-0.0323419 0.0226045,-0.0468088l-6.95524e-005 0c0.0114066,-0.0211439 0.0251084,-0.0452091 0.0394362,-0.0703175l-6.95524e-005 -6.95524e-005 0.0294902 -0.0524425c0.0732387,-0.133402 0.144182,-0.246842 0.219021,-0.36682l0.0730996 -0.117683 6.95524e-005 6.95524e-005c0.104398,-0.169291 0.225489,-0.34818 0.341989,-0.520183 0.0343589,-0.0507037 0.0696915,-0.102868 0.118587,-0.175968l0.000486867 -0.000695524 0.23467 -0.339485 6.95524e-005 6.95524e-005c0.01398,-0.020518 0.0230914,-0.0315768 0.0303249,-0.0403404 0.010572,-0.0127976 0.0138409,-0.0167621 0.0138409,-0.0648229l0.00027821 0 -6.95524e-005 -0.0405491 -0.318828 0.354926 -6.95524e-005 -6.95524e-005c-0.00883316,0.009946 -0.0157189,0.0167621 -0.0220481,0.0229523l0 -6.95524e-005c-0.00584241,0.00577285 -0.0116153,0.0115457 -0.0179445,0.0194747l-0.000208657 0.00027821c-0.0401318,0.0498691 -0.0804026,0.0934785 -0.119074,0.135419 -0.0289338,0.0313682 -0.0571721,0.0619712 -0.0837411,0.0936176 -0.0111284,0.0133541 -0.0252475,0.029212 -0.0388798,0.0446527 -0.0128672,0.0145365 -0.0259431,0.0292816 -0.0420097,0.0488954l-0.00173881 0.00194747 -0.0831152 0.0922265 -0.00243434 0.00243434c-0.0157189,0.0153711 -0.0195442,0.0202398 -0.0293511,0.0325505l-0.00709435 0.00890271 -0.000208657 0.00027821c-0.0102938,0.0127976 -0.0189183,0.0213526 -0.0279601,0.0302553l-0.000208657 0.000208657c-0.00452091,0.0043818 -0.00945913,0.00932003 -0.015858,0.0164144l-0.078316 0.0890271 -6.95524e-005 -6.95524e-005c-0.045696,0.0555028 -0.10871,0.124568 -0.167969,0.189322l0.000139105 6.95524e-005c-0.030464,0.0333156 -0.0606497,0.0664226 -0.0800549,0.0881229l-0.0197529 0.0226741c-0.0210744,0.0243434 -0.0456264,0.0527208 -0.0651011,0.0697611l-0.0294207 0.0257344 -0.0342894 -0.0189878 -0.230914 -0.128255 -0.056407 0.091531 0.0147451 0.0185009c0.0500082,0.0628754 0.101129,0.127072 0.153154,0.182992l0 0.000208657c0.0349153,0.037767 0.0870797,0.0999469 0.140635,0.163796 0.0473652,0.0564766 0.0961215,0.114622 0.132011,0.155171zm0.110171 0.0269168c-0.0160666,0.0353326 -0.0331765,0.0727519 -0.0605802,0.101686l-0.0367237 0.0388103 -0.0402709 -0.035124c-0.0334547,-0.0292816 -0.11344,-0.124638 -0.190017,-0.21596 -0.0548769,-0.0655184 -0.108224,-0.129089 -0.136671,-0.159762l-6.95524e-005 6.95524e-005c-0.0555028,-0.059676 -0.107737,-0.125264 -0.158858,-0.18953l-0.0390189 -0.0488954 -0.0242738 -0.030464 0.0205875 -0.0333852 0.104885 -0.170195 0.0278905 -0.0452786 0.046461 0.0258735 0.240304 0.133471 0.0276123 -0.0315768 0.000208657 -0.000208657 0.0199616 -0.0228828 0.000417315 -0.000417315c0.0294902,-0.0330374 0.0545987,-0.0604411 0.0810286,-0.0893749l0.000208657 0c0.0573808,-0.0627363 0.118726,-0.129854 0.165187,-0.18654l0.00111284 -0.00153015 0.078316 -0.0890271 0.000417315 -0.000417315c0.00737256,-0.00820719 0.014606,-0.0153015 0.0213526,-0.021909l0.000208657 -0.000208657c0.00632927,-0.00625972 0.0124499,-0.0122412 0.0189878,-0.0204484l0.00709435 -0.00890271 0.000208657 -0.00027821c0.0120326,-0.0150233 0.0169012,-0.021283 0.0358891,-0.0399927l0.0813068 -0.09014c0.011963,-0.0146756 0.0285861,-0.0333156 0.0449309,-0.0518166 0.0116848,-0.0132845 0.0234392,-0.0263604 0.0367932,-0.042427 0.0277514,-0.0330374 0.0571026,-0.0648924 0.0872188,-0.0975125 0.037141,-0.0402709 0.0758817,-0.082211 0.114205,-0.129854 0.00980689,-0.0123803 0.0182227,-0.0205875 0.0269168,-0.029212l0.000417315 -0.000486867c0.00528599,-0.00514688 0.0109197,-0.0107806 0.016623,-0.0171795l0.000208657 -0.000417315 0.415576 -0.462663 0.096817 -0.107737 0.000208657 0.145017 0.000347762 0.185566 0.00027821 0c0,0.0879838 -0.00911137,0.0990427 -0.0395753,0.135905 -0.0071639,0.00869406 -0.0162753,0.0196833 -0.0246216,0.0319941l-0.000208657 0.000486867 -0.234183 0.33879 -0.119143 0.176385c-0.115109,0.170125 -0.234948,0.347067 -0.339416,0.516427l0 0.000208657 -0.0730996 0.117683c-0.0739342,0.118448 -0.143904,0.230497 -0.216169,0.36209l-0.000208657 0.000417315 -0.0294902 0.0524425 -0.000208657 0.000208657c-0.011337,0.019892 -0.0232305,0.0408968 -0.0383234,0.0687874l-0.000208657 0.00027821c-0.00625972,0.0114066 -0.012589,0.0252475 -0.0188487,0.039158zm0.293024 -1.2324l0.000139105 -0.000139105"/>
  <g id="_218124824">
   <path id="_537582816" class="fil2" d="M5.88031 0.668329l6.95524e-005 -0.36988c-0.291216,0.119769 -0.54397,0.353396 -0.665826,0.646629 -0.056407,0.13521 -0.084854,0.279323 -0.084854,0.432477 0,0.154128 0.0284469,0.29831 0.084854,0.432477 0.0563375,0.134723 0.139174,0.25491 0.248372,0.361186 0.10725,0.105233 0.230497,0.186053 0.370645,0.243434 0.139661,0.0568939 0.286347,0.0852713 0.440476,0.0852713 0.152181,0 0.297337,-0.0283774 0.435537,-0.0847844 0.138131,-0.0563375 0.262352,-0.137644 0.372592,-0.24392 0.109267,-0.106276 0.192034,-0.22695 0.249415,-0.362646 0.0568243,-0.13521 0.0852713,-0.278836 0.0852713,-0.431016 0,-0.151137 -0.0284469,-0.294346 -0.0852713,-0.43046 -0.103703,-0.245242 -0.402152,-0.578259 -0.656853,-0.660261l-0.000695524 0.357778c0.119561,0.130759 0.25324,0.25797 0.320845,0.424687 0.0393667,0.0977907 0.0593282,0.20052 0.0593282,0.308256 0,0.10725 -0.0199616,0.209562 -0.0593282,0.306309 -0.0394362,0.0973039 -0.0957737,0.183549 -0.170125,0.259361 -0.0748384,0.0763686 -0.159623,0.134236 -0.25338,0.17409 -0.0937567,0.0399231 -0.193078,0.0598847 -0.297337,0.0598847 -0.106207,0 -0.206501,-0.0199616 -0.300814,-0.0598847 -0.0947304,-0.0398535 -0.179028,-0.0977212 -0.252893,-0.17409 -0.0737951,-0.0758122 -0.130689,-0.162057 -0.169569,-0.258387 -0.0389494,-0.0967474 -0.0583545,-0.19899 -0.0583545,-0.307283 0,-0.10878 0.0194051,-0.211996 0.0583545,-0.309787 0.0523034,-0.130828 0.196277,-0.343311 0.329539,-0.39944z"/>
   <path id="_537582936" class="fil2" d="M5.80638 0.623746l0 -0.209562c-0.100781,0.0531381 -0.194816,0.121299 -0.277027,0.201146 -0.105024,0.101894 -0.190782,0.223472 -0.246703,0.357986 -0.0262908,0.0630145 -0.0461133,0.128324 -0.0592587,0.195651 -0.0131454,0.0670486 -0.0198224,0.136671 -0.0198224,0.208657 0,0.0724041 0.00667703,0.142235 0.0198224,0.209283 0.0130759,0.0669094 0.0328983,0.131802 0.0592587,0.194469l0 0.000347762c0.0262213,0.0628754 0.0586327,0.122134 0.096817,0.177706 0.0386016,0.0560593 0.083602,0.109128 0.134862,0.158927l0.00027821 0.00027821c0.050356,0.0493822 0.104329,0.0930612 0.16157,0.130689l0.000139105 -0.000208657c0.0584936,0.0384625 0.120187,0.0709435 0.184731,0.0973734l0.000139105 -0.00027821c0.0657271,0.0267777 0.132776,0.0468088 0.201007,0.0600238 0.0684396,0.0132845 0.138966,0.019892 0.211787,0.019892 0.0717086,0 0.1414,-0.00660748 0.208866,-0.0197529 0.0684396,-0.0133541 0.134932,-0.0331765 0.199059,-0.0593282l0 -0.00027821c0.064336,-0.0262908 0.125751,-0.0585632 0.183758,-0.0965388 0.0585632,-0.0383234 0.113788,-0.0825587 0.165326,-0.13215 0.0511906,-0.0496604 0.0960519,-0.102659 0.134584,-0.158649l-6.95524e-005 -6.95524e-005c0.0388798,-0.0566852 0.0717086,-0.11657 0.0982776,-0.179445 0.0262213,-0.0622494 0.0460437,-0.127211 0.0593978,-0.194608 0.013215,-0.0668399 0.019892,-0.136184 0.019892,-0.207684 0,-0.0709435 -0.00667703,-0.13994 -0.019892,-0.206779 -0.013215,-0.0667703 -0.0332461,-0.132011 -0.0597455,-0.195442l0.000139105 -6.95524e-005c-0.0509819,-0.120604 -0.153502,-0.264995 -0.274593,-0.386851 -0.0766468,-0.0769946 -0.159832,-0.144182 -0.240791,-0.189044l-0.000417315 0.216308 0.0322028 0.0347067c0.109197,0.116779 0.220342,0.235991 0.283287,0.391093l0 0.00027821c0.0214222,0.0533467 0.037767,0.108084 0.0484781,0.164144 0.0107806,0.0563375 0.0162753,0.113718 0.0162753,0.171655 0,0.0578676 -0.00549464,0.114831 -0.0163448,0.170751 -0.0108502,0.0561288 -0.0269863,0.110658 -0.0484085,0.1631 -0.0215613,0.0531381 -0.047713,0.103424 -0.0785943,0.150581 -0.0306726,0.0468783 -0.0664226,0.0912528 -0.107389,0.132915 -0.0406186,0.0413837 -0.0840889,0.0780378 -0.130202,0.109545l0 0c-0.0465306,0.0319246 -0.0956346,0.0587718 -0.146825,0.0804722 -0.0509819,0.0218395 -0.10412,0.0383234 -0.158997,0.0493822 -0.0552942,0.0111284 -0.111145,0.0167621 -0.167274,0.0167621 -0.0577981,0 -0.114414,-0.00549464 -0.16936,-0.0164839 -0.0542509,-0.0107806 -0.107528,-0.0273341 -0.159553,-0.0493822l0 6.95524e-005c-0.0518166,-0.0217004 -0.101199,-0.0486867 -0.147938,-0.0808199 -0.0462524,-0.0317159 -0.089514,-0.0684396 -0.129646,-0.109823 -0.0405491,-0.0416619 -0.0764381,-0.0861755 -0.107041,-0.132984 -0.0306031,-0.0466001 -0.0566852,-0.0965388 -0.0781074,-0.149538 -0.0212135,-0.0526512 -0.0372106,-0.107111 -0.0478521,-0.16317 -0.0106415,-0.0561288 -0.0159971,-0.11337 -0.0159971,-0.171377 0,-0.0582849 0.00535554,-0.115874 0.0159971,-0.17256 0.0105024,-0.0559897 0.026569,-0.110867 0.0478521,-0.164492l0 -0.00027821c0.0312986,-0.0781769 0.0927134,-0.183271 0.165257,-0.271185 0.0485476,-0.0588414 0.103077,-0.111145 0.158788,-0.145365zm0.147729 -0.325297l0 0.36988 0 0.049104 -0.0452786 0.0190574c-0.0477825,0.0200311 -0.100016,0.0684396 -0.147521,0.126099 -0.0628059,0.0760904 -0.115596,0.166091 -0.142165,0.232514l-0.000139105 -6.95524e-005c-0.0175272,0.0442354 -0.0308117,0.0900009 -0.0396449,0.137157 -0.00876361,0.046461 -0.0131454,0.0949391 -0.0131454,0.145434 0,0.0500778 0.0043818,0.098208 0.0131454,0.144252 0.00876361,0.0463219 0.0221177,0.091531 0.039784,0.135488 0.0173186,0.0429139 0.0390189,0.084228 0.0647533,0.123525 0.0259431,0.0396449 0.0558506,0.0767859 0.0892358,0.111075 0.0337329,0.0348458 0.0696915,0.0653793 0.107667,0.0913919 0.0374888,0.025804 0.0778292,0.0477825 0.120743,0.0657271l0.000625972 0.000347762c0.0418706,0.0178054 0.0857582,0.0312986 0.131315,0.0403404 0.0452091,0.00911137 0.0922265,0.0136323 0.140496,0.0136323 0.0483389,0 0.0945913,-0.00452091 0.138479,-0.0133541 0.0440962,-0.00883316 0.0875665,-0.0223959 0.130063,-0.0406186 0.0427052,-0.0181532 0.0833238,-0.0402709 0.12123,-0.066353l0.00027821 -0.00027821c0.0381147,-0.0260126 0.074282,-0.0565461 0.108224,-0.0911137 0.0333852,-0.0340111 0.0630841,-0.071013 0.088888,-0.110449 0.0257344,-0.0392276 0.0475043,-0.0810286 0.0653793,-0.125125 0.0179445,-0.0440962 0.0314377,-0.0894444 0.0403404,-0.135419 0.00890271,-0.0459742 0.0134236,-0.0937567 0.0134236,-0.143069 0,-0.0496604 -0.00452091,-0.0977907 -0.0133541,-0.143974 -0.00904182,-0.0466697 -0.022535,-0.0924352 -0.0403404,-0.13674l-6.95524e-005 6.95524e-005c-0.0529294,-0.130411 -0.154615,-0.2394 -0.254423,-0.346162l-0.0525121 -0.0565461 -0.0190574 -0.0209353 0 -0.0287252 0.000625972 -0.357847 0.000208657 -0.10106 0.0959128 0.0308813c0.132567,0.0427052 0.273619,0.144878 0.396101,0.268055 0.13368,0.134445 0.247954,0.296572 0.305961,0.433938l0.000347762 0.000347762c0.0302553,0.0724736 0.0531381,0.147103 0.0683005,0.223681 0.0151624,0.0766468 0.0228132,0.155032 0.0228132,0.235018 0,0.0806113 -0.00765077,0.159275 -0.0228132,0.235922 -0.0150929,0.0760904 -0.0380452,0.15079 -0.0686483,0.223542 -0.0308117,0.0728214 -0.0681614,0.141331 -0.112119,0.205388l-0.00027821 0.00027821c-0.0443049,0.0644751 -0.0955651,0.124986 -0.153502,0.181184l-0.00027821 0.00027821c-0.0587023,0.0566157 -0.121021,0.106624 -0.186609,0.149538 -0.0659357,0.0431225 -0.135766,0.0797767 -0.209283,0.109754l-0.000139105 -0.000208657c-0.0740038,0.0301858 -0.149677,0.0529294 -0.226602,0.0678832 -0.0773423,0.0150929 -0.156284,0.0226741 -0.236548,0.0226741 -0.0812373,0 -0.161153,-0.00758122 -0.239469,-0.0227436 -0.078316,-0.015232 -0.154685,-0.0379756 -0.228688,-0.0680918l0 -0.00027821c-0.0753948,-0.0308117 -0.145504,-0.0675354 -0.210327,-0.110102l0 -0.00027821c-0.0657966,-0.0431921 -0.127142,-0.0927134 -0.183897,-0.148425 -0.0578676,-0.0561984 -0.109058,-0.11657 -0.153294,-0.180836 -0.044444,-0.0646838 -0.0818632,-0.132984 -0.111771,-0.204623l-0.000139105 6.95524e-005c-0.0299771,-0.0713608 -0.0526512,-0.145921 -0.0678832,-0.223333 -0.0150233,-0.076925 -0.0226741,-0.156215 -0.0226741,-0.237591 0,-0.080959 0.00765077,-0.16004 0.0226741,-0.236896 0.0150233,-0.076925 0.037767,-0.151763 0.0678832,-0.223959 0.0637796,-0.153363 0.161153,-0.291494 0.280227,-0.40709 0.122691,-0.119213 0.268959,-0.214917 0.425661,-0.279323l0.101825 -0.0419401 0 0.110032z"/>
   <path id="_537583056" class="fil2" d="M5.83462 0.639743l0 -0.270768c-0.118796,0.0569634 -0.229523,0.133888 -0.32474,0.226393 -0.107667,0.104607 -0.195512,0.229106 -0.252962,0.367306 -0.0269168,0.0646142 -0.0472261,0.131524 -0.0607888,0.200728 -0.0136323,0.0690656 -0.0204484,0.140496 -0.0204484,0.214152 0,0.0740733 0.00681614,0.145643 0.0203093,0.214639 0.0135627,0.068996 0.033872,0.135766 0.0609279,0.200102l0 0.000208657c0.0269863,0.0644751 0.060302,0.125403 0.0997382,0.182784 0.0396449,0.0575894 0.0857582,0.112049 0.13827,0.1631l0.000139105 0.000208657c0.0511906,0.0502169 0.106554,0.0948695 0.166022,0.133888l0 0.000139105c0.0592587,0.0389494 0.122482,0.0721259 0.18967,0.0995991l6.95524e-005 -0.000139105c0.0671877,0.0273341 0.135975,0.0479216 0.206223,0.0614844 0.070248,0.0136323 0.142652,0.0203789 0.216934,0.0203789 0.0733083,0 0.144739,-0.00674659 0.214152,-0.0203093 0.0695524,-0.0134932 0.137644,-0.033872 0.204136,-0.0609975 0.0662835,-0.0270559 0.129298,-0.0601629 0.188904,-0.0991818 0.0599542,-0.0392276 0.116361,-0.0842976 0.169221,-0.13521 0.0526512,-0.0512601 0.0987645,-0.10572 0.13827,-0.16317 0.0396449,-0.0577285 0.0732387,-0.119143 0.100712,-0.184314 0.0269863,-0.0641969 0.0474348,-0.130967 0.061067,-0.200172 0.0136323,-0.0687874 0.0204484,-0.13987 0.0204484,-0.213039 0,-0.0726127 -0.00681614,-0.143348 -0.0204484,-0.212065 -0.0135627,-0.0687178 -0.0340807,-0.135766 -0.0612061,-0.200798l6.95524e-005 -6.95524e-005c-0.052373,-0.123734 -0.157189,-0.271533 -0.280783,-0.395753 -0.0911833,-0.0916701 -0.191965,-0.169847 -0.288156,-0.214778l-0.000486867 0.272715 0.0403404 0.0432616c0.107111,0.114762 0.216308,0.231679 0.277166,0.381982l0 0.000208657c0.0208657,0.051747 0.0365846,0.104885 0.047087,0.159136 0.0104329,0.0543205 0.0157189,0.109754 0.0157189,0.166161 0,0.0562679 -0.00528599,0.111493 -0.0157189,0.165465 -0.0105024,0.0541814 -0.0262213,0.106972 -0.047087,0.158093 -0.0207962,0.0513993 -0.0461133,0.0999469 -0.0760208,0.145643 -0.0297684,0.0454177 -0.0644056,0.088262 -0.103911,0.128672 -0.0392971,0.0399927 -0.0813764,0.0753948 -0.12582,0.105928l-0.000208657 0.000208657c-0.0447918,0.0307422 -0.0922265,0.0567548 -0.142096,0.0779683 -0.0495213,0.0210744 -0.100781,0.0369323 -0.153572,0.0475739 -0.0531381,0.0106415 -0.107111,0.0160666 -0.161779,0.0160666 -0.0560593,0 -0.110727,-0.00528599 -0.163866,-0.015858 -0.0525816,-0.0105024 -0.10412,-0.0264299 -0.154615,-0.0477825 -0.050356,-0.0212135 -0.0979298,-0.0472261 -0.142583,-0.0778987 -0.0446527,-0.0307422 -0.0865232,-0.0661444 -0.125403,-0.106415 -0.0392276,-0.0402709 -0.0739342,-0.0832543 -0.103772,-0.128742 -0.0296293,-0.0452091 -0.0548769,-0.0934089 -0.075534,-0.1446 -0.020518,-0.051121 -0.0359586,-0.103772 -0.0462524,-0.157954 -0.0102938,-0.0542509 -0.0155102,-0.109754 -0.0155102,-0.166369 0,-0.0568243 0.00521643,-0.112675 0.0155102,-0.167482 0.0102242,-0.0541814 0.0256649,-0.107319 0.0462524,-0.159136l0 -0.000208657c0.0303944,-0.0760208 0.0900704,-0.178054 0.160805,-0.263812 0.0507037,-0.0614844 0.107876,-0.115318 0.165604,-0.147173zm0.091531 -0.341294l0 0.36988 -6.95524e-005 0.0303249 -0.0279601 0.0118239c-0.0520948,0.021909 -0.107945,0.0734474 -0.158371,0.134584 -0.0646838,0.078316 -0.119004,0.171099 -0.146477,0.239817l0 -6.95524e-005c-0.0182227,0.0458351 -0.0319941,0.0932698 -0.0412446,0.142165 -0.00911137,0.0484781 -0.0137018,0.0986949 -0.0137018,0.150581 0,0.0516079 0.00459046,0.101477 0.0137018,0.149538 0.00918092,0.0481998 0.0229523,0.0951477 0.0412446,0.140705 0.0181532,0.0447918 0.0406882,0.0877752 0.0673268,0.128463 0.0269168,0.0408968 0.0578676,0.0793593 0.0925743,0.11504 0.0349153,0.0360977 0.0721954,0.0677441 0.11184,0.0949391 0.0395753,0.0272646 0.0816546,0.0502864 0.126029,0.0689265 0.0436789,0.0185009 0.0893749,0.032481 0.137018,0.0420097 0.0472261,0.00938958 0.0959128,0.0140496 0.145921,0.0140496 0.04973,0 0.0977212,-0.00466001 0.143765,-0.0139105 0.0462524,-0.00925047 0.0916006,-0.0233696 0.135697,-0.0421488 0.0441658,-0.0187792 0.0863841,-0.0419401 0.126307,-0.0693438l6.95524e-005 0c0.0395753,-0.027195 0.0770641,-0.0587718 0.112258,-0.0946609 0.0347762,-0.0354717 0.065588,-0.0737256 0.0924352,-0.114692 0.0266386,-0.0407577 0.0492431,-0.0840193 0.0678136,-0.129854 0.0186401,-0.0457655 0.0326896,-0.092783 0.0420097,-0.140844 0.00925047,-0.0479216 0.01398,-0.0973734 0.01398,-0.148216 0,-0.0510515 -0.00472957,-0.100712 -0.01398,-0.148912 -0.00938958,-0.0486172 -0.0234392,-0.0960519 -0.0419401,-0.142096l-6.95524e-005 0c-0.0545987,-0.134862 -0.157884,-0.245381 -0.259292,-0.354022 -0.0132845,-0.0142583 -0.0267777,-0.0287252 -0.0527208,-0.057033l-0.0120326 -0.013215 0 -0.0176663 0.000695524 -0.357778 6.95524e-005 -0.0628059c0.188487,0.0607193 0.303179,0.13827 0.44444,0.280227 0.131454,0.13208 0.243503,0.290868 0.300258,0.425035l0.000208657 0.000208657c0.0296293,0.071013 0.0518861,0.143834 0.0666312,0.218395 0.0148147,0.0746298 0.0222568,0.151207 0.0222568,0.229662 0,0.078942 -0.00744211,0.155867 -0.0222568,0.230705 -0.0146756,0.0743516 -0.0370019,0.147103 -0.0668399,0.218047 -0.0297684,0.0705262 -0.066353,0.137366 -0.109684,0.20045 -0.0434703,0.0632927 -0.0934785,0.122412 -0.149955,0.177359l-0.000139105 0.000139105c-0.0573808,0.0552942 -0.118239,0.103981 -0.182506,0.14606 -0.0644751,0.0422183 -0.132776,0.0780378 -0.204693,0.107389 -0.0717781,0.0292816 -0.145643,0.0513297 -0.221385,0.0660748 -0.0754644,0.0146756 -0.152668,0.0221177 -0.231401,0.0221177 -0.0796375,0 -0.157814,-0.00744211 -0.234183,-0.0221872 -0.0764381,-0.0148147 -0.150929,-0.0370019 -0.223472,-0.0665617l0 -0.000139105c-0.072891,-0.029838 -0.1414,-0.0657966 -0.205458,-0.107806l-6.95524e-005 6.95524e-005c-0.0639187,-0.0418706 -0.123803,-0.0902791 -0.179793,-0.145225l0 6.95524e-005c-0.0566852,-0.0551551 -0.106624,-0.114136 -0.149746,-0.176802 -0.0432616,-0.0628754 -0.0796375,-0.129437 -0.108989,-0.199546l-6.95524e-005 6.95524e-005c-0.0294207,-0.0700393 -0.0515384,-0.142791 -0.0662835,-0.218047 -0.0147451,-0.0749775 -0.0221177,-0.152389 -0.0221177,-0.232236 0,-0.0794289 0.00744211,-0.156702 0.0221872,-0.231749 0.0146756,-0.0749775 0.0367932,-0.147729 0.0662139,-0.218325 0.062319,-0.149886 0.157397,-0.284817 0.273758,-0.39784 0.148634,-0.144321 0.29219,-0.22215 0.48019,-0.299493l0 0.0683005z"/>
   <path id="_537583176" class="fil3" d="M6.23809 0.0490345c-0.157745,0.0315073 -0.136531,0.143834 -0.136531,0.235783l0.00417315 0.739968c-6.95524e-005,0.0620408 0.0043818,0.102033 0.045696,0.137088 0.0872188,0.0740038 0.223402,0.0495909 0.272506,-0.0347067 0.0256649,-0.0441658 0.0169012,-0.10725 0.0169012,-0.161362l-0.00417315 -0.739968c0,-0.0626667 -0.00674659,-0.100712 -0.0458351,-0.136949 -0.0276123,-0.0255257 -0.0912528,-0.0520948 -0.152737,-0.0398535z"/>
   <path id="_537583320" class="fil2" d="M6.24706 0.0941045c-0.103424,0.0206571 -0.101755,0.0934785 -0.100225,0.16011l0.000695524 0.0305335 -0.000208657 0 0.00417315 0.739829 0 0.000208657c0,0.0270559 0.000834629,0.0490345 0.0057033,0.0662835 0.00375583,0.0132845 0.0109197,0.0248302 0.0238565,0.0358195 0.00632927,0.00528599 0.0129368,0.0100156 0.0196833,0.0139105 0.0296293,0.017249 0.0641274,0.0223263 0.096191,0.0174577 0.0311595,-0.00479912 0.0593978,-0.0190574 0.0778292,-0.0406882 0.00354717,-0.0042427 0.00674659,-0.00869406 0.00945913,-0.0133541 0.0140496,-0.0241347 0.0127976,-0.0648924 0.0115457,-0.103703 -0.000417315,-0.0142583 -0.000834629,-0.0278905 -0.000834629,-0.0347067l0.000139105 0 -0.00417315 -0.73976 -0.000208657 -0.000208657c0,-0.0272646 -0.00125194,-0.0486867 -0.00625972,-0.0652402 -0.0042427,-0.0140496 -0.0118239,-0.0261517 -0.0246911,-0.0381147l-0.000208657 0c-0.0103633,-0.00959824 -0.0292816,-0.0197529 -0.052373,-0.025804 -0.0187792,-0.00486867 -0.0397144,-0.00667703 -0.0600933,-0.00257344zm-0.191756 0.162266c-0.00243434,-0.103494 -0.00507733,-0.216656 0.173812,-0.252406 0.0347067,-0.00695524 0.0699002,-0.00403404 0.10106,0.00403404 0.0383234,0.0100156 0.0719172,0.0287947 0.0918092,0.0473652l-6.95524e-005 6.95524e-005c0.0260822,0.0242042 0.0415228,0.0493127 0.0504255,0.078942 0.00813764,0.0270559 0.0102938,0.0561288 0.0102938,0.0914615l-0.000208657 0 0.00417315 0.73976 0.000208657 0.000208657c0,0.0147451 0.00027821,0.0234392 0.000486867,0.0317855l0 0.000208657c0.00159971,0.0516775 0.00333852,0.105859 -0.0237869,0.152389 -0.00549464,0.00952868 -0.0118239,0.0184314 -0.0187792,0.026569 -0.0329679,0.0389494 -0.0817241,0.0642665 -0.134097,0.072265 -0.0514688,0.00792898 -0.107319,-0.000625972 -0.155867,-0.0288643 -0.0114762,-0.00667703 -0.022535,-0.0144669 -0.0328983,-0.0233001 -0.0283774,-0.0239956 -0.0442354,-0.0501473 -0.052999,-0.0810286 -0.00758122,-0.0269168 -0.00897226,-0.0559897 -0.00890271,-0.0908355l-0.00417315 -0.740038 -0.000208657 -0.000208657c0,-0.0164144 -0.000139105,-0.0223263 -0.00027821,-0.0283774z"/>
  </g>
  <path class="fil0" d="M0.184662 5.6174l0.0493822 0 0 0.386155 -0.0493822 0 0 -0.386155zm0.0251084 -0.145921c0.00980689,0 0.0179445,0.00326896 0.0242738,0.009946 0.00639882,0.00660748 0.00959824,0.0148147 0.00959824,0.0246911 0,0.00980689 -0.00333852,0.0181532 -0.009946,0.0250389 -0.00660748,0.00688569 -0.014606,0.0102938 -0.023926,0.0102938 -0.00987645,0 -0.0180836,-0.00340807 -0.0246911,-0.0102938 -0.00667703,-0.00688569 -0.009946,-0.015232 -0.009946,-0.0250389 0,-0.00987645 0.00326896,-0.0180836 0.009946,-0.0246911 0.00660748,-0.00667703 0.0148147,-0.009946 0.0246911,-0.009946zm0.369949 0.14446c0.0461828,0 0.0824196,0.0133541 0.10871,0.0401318 0.0262908,0.0267777 0.0394362,0.0635014 0.0394362,0.110171l0 0.237313 -0.0501473 0 0 -0.225489c0,-0.0363759 -0.0100851,-0.0648924 -0.0301858,-0.0855495 -0.0201702,-0.0205875 -0.0481998,-0.0309508 -0.0840193,-0.0309508 -0.0398535,0.00055642 -0.071639,0.0127976 -0.0954955,0.0368628 -0.0237869,0.0240651 -0.0374192,0.0565461 -0.0408968,0.0973039l0 0.207823 -0.0493822 0 0 -0.386155 0.0493822 0 0 0.0898618c0.0132845,-0.0299075 0.0328288,-0.0525121 0.0586327,-0.0677441 0.025804,-0.015232 0.0571026,-0.0230914 0.0939653,-0.0235783zm0.474626 0.361116c-0.026569,0.0181532 -0.055016,0.0277514 -0.08548,0.0287252 -0.0294902,0 -0.0528599,-0.00911137 -0.0700393,-0.0272646 -0.0171795,-0.0182227 -0.025804,-0.0454873 -0.025804,-0.0817937l0 -0.22994 -0.0552942 0 -0.000695524 -0.0383234 0.0559897 0 0 -0.0995295 0.0493822 0 0 0.0995295 0.125264 -0.000765077 0 0.0390885 -0.125264 0 0 0.221803c0,0.0476434 0.0176663,0.0714999 0.0530685,0.0714999 0.0196833,0 0.0410359,-0.00688569 0.0641274,-0.0206571l0.0147451 0.0376279zm0.239469 -0.361116c0.0599542,0 0.10565,0.0189878 0.137088,0.0571026 0.0314377,0.0380452 0.0459046,0.0893053 0.0434703,0.153641l-0.322028 0c0.00340807,0.0412446 0.0186401,0.0745602 0.045696,0.0998773 0.0269863,0.0253171 0.0603715,0.0379061 0.100225,0.0379061 0.024552,0 0.0473652,-0.0043818 0.0685092,-0.013215 0.0211439,-0.00883316 0.0392971,-0.0214222 0.0545291,-0.0376279l0.0280296 0.0280296c-0.0187096,0.0201702 -0.041175,0.03575 -0.0674659,0.0468088 -0.0262908,0.0110588 -0.0551551,0.0165535 -0.0865928,0.0165535 -0.0373497,0 -0.0704566,-0.00820719 -0.09946,-0.0246911 -0.0290034,-0.0164144 -0.051747,-0.0394362 -0.0681614,-0.0689265 -0.0164839,-0.0294207 -0.0246911,-0.0630841 -0.0246911,-0.100921 0,-0.0373497 0.00820719,-0.0708739 0.0246911,-0.100642 0.0164144,-0.0296989 0.039158,-0.0527903 0.0681614,-0.0692742 0.0290034,-0.0164144 0.0616235,-0.0246216 0.0979994,-0.0246216zm0.136323 0.172421c-0.00243434,-0.0402709 -0.015858,-0.0723345 -0.0401318,-0.096191 -0.0243434,-0.0237869 -0.0561288,-0.03575 -0.0954259,-0.03575 -0.0388103,0 -0.0712913,0.0120326 -0.0973039,0.0360977 -0.0260126,0.0241347 -0.0410359,0.0560593 -0.0449309,0.0958433l0.277792 0zm0.196764 -0.0810981c0.0127976,-0.0294207 0.0310899,-0.0519557 0.0549464,-0.0673963 0.0237869,-0.0155102 0.0524425,-0.0234392 0.0858277,-0.023926l0 0.0463915c-0.0407577,-0.000486867 -0.0735865,0.0114066 -0.0983472,0.03575 -0.0248302,0.0243434 -0.0389494,0.0573808 -0.042427,0.0991122l0 0.206362 -0.0493822 0 0 -0.386155 0.0493822 0 0 0.0898618zm0.462802 0.296293l-0.000695524 -0.0648229c-0.015232,0.022535 -0.035124,0.0393667 -0.059676,0.0504255 -0.0246216,0.0110588 -0.0528599,0.016623 -0.0847844,0.016623 -0.0260126,0 -0.0490345,-0.00507733 -0.0689265,-0.0150929 -0.019892,-0.0100851 -0.0351935,-0.0239956 -0.0460437,-0.0416619 -0.0107806,-0.0176663 -0.0162057,-0.0376279 -0.0162057,-0.059676 0,-0.0334547 0.0128672,-0.0597455 0.0386712,-0.0788725 0.025804,-0.0191965 0.0613453,-0.0287252 0.106485,-0.0287252l0.129715 0 0 -0.0294902c0,-0.030464 -0.00904182,-0.0540422 -0.0272646,-0.0707348 -0.0181532,-0.0167621 -0.0447222,-0.0251084 -0.079568,-0.0251084 -0.0412446,0 -0.0827674,0.0155102 -0.124568,0.046461l-0.0221177 -0.0339416c0.0260822,-0.0181532 0.0508428,-0.0315073 0.0744211,-0.0401318 0.0236478,-0.0086245 0.0506342,-0.0128672 0.0810981,-0.0128672 0.0466697,0 0.0827674,0.0116153 0.108363,0.0349849 0.0255257,0.0233001 0.0385321,0.055642 0.0390189,0.0968866l0.000765077 0.255744 -0.0486867 0zm-0.136323 -0.0390885c0.0344285,0 0.0635014,-0.00792898 0.0873579,-0.023926 0.0237869,-0.0159971 0.0399231,-0.0384625 0.0482694,-0.0673963l0 -0.0530685 -0.124568 0c-0.033872,0 -0.059676,0.00563375 -0.0773423,0.0169012 -0.0177359,0.011337 -0.026569,0.0282383 -0.026569,0.0508428 0,0.0230914 0.0084854,0.0416619 0.0254562,0.055642 0.0169012,0.0140496 0.0394362,0.0210048 0.0673963,0.0210048zm0.511489 0.012589c-0.026569,0.0181532 -0.055016,0.0277514 -0.08548,0.0287252 -0.0294902,0 -0.0528599,-0.00911137 -0.0700393,-0.0272646 -0.0171795,-0.0182227 -0.025804,-0.0454873 -0.025804,-0.0817937l0 -0.22994 -0.0552942 0 -0.000695524 -0.0383234 0.0559897 0 0 -0.0995295 0.0493822 0 0 0.0995295 0.125264 -0.000765077 0 0.0390885 -0.125264 0 0 0.221803c0,0.0476434 0.0176663,0.0714999 0.0530685,0.0714999 0.0196833,0 0.0410359,-0.00688569 0.0641274,-0.0206571l0.0147451 0.0376279zm0.0890967 -0.359656l0.0493822 0 0 0.386155 -0.0493822 0 0 -0.386155zm0.0251084 -0.145921c0.00980689,0 0.0179445,0.00326896 0.0242738,0.009946 0.00639882,0.00660748 0.00959824,0.0148147 0.00959824,0.0246911 0,0.00980689 -0.00333852,0.0181532 -0.009946,0.0250389 -0.00660748,0.00688569 -0.014606,0.0102938 -0.023926,0.0102938 -0.00987645,0 -0.0180836,-0.00340807 -0.0246911,-0.0102938 -0.00667703,-0.00688569 -0.009946,-0.015232 -0.009946,-0.0250389 0,-0.00987645 0.00326896,-0.0180836 0.009946,-0.0246911 0.00660748,-0.00667703 0.0148147,-0.009946 0.0246911,-0.009946zm0.09946 0.145921l0.0530685 0 0.128255 0.336773 0.126725 -0.336773 0.0516079 0 -0.153294 0.386155 -0.0523034 0 -0.154059 -0.386155zm0.430391 0l0.0493822 0 0 0.386155 -0.0493822 0 0 -0.386155zm0.0251084 -0.145921c0.00980689,0 0.0179445,0.00326896 0.0242738,0.009946 0.00639882,0.00660748 0.00959824,0.0148147 0.00959824,0.0246911 0,0.00980689 -0.00333852,0.0181532 -0.009946,0.0250389 -0.00660748,0.00688569 -0.014606,0.0102938 -0.023926,0.0102938 -0.00987645,0 -0.0180836,-0.00340807 -0.0246911,-0.0102938 -0.00667703,-0.00688569 -0.009946,-0.015232 -0.009946,-0.0250389 0,-0.00987645 0.00326896,-0.0180836 0.009946,-0.0246911 0.00660748,-0.00667703 0.0148147,-0.009946 0.0246911,-0.009946zm0.519557 -0.0147451l0 0.546821 -0.0493822 0 0 -0.0884707c-0.0147451,0.0290034 -0.0354022,0.0514688 -0.0619017,0.0674659 -0.026569,0.0159971 -0.0575199,0.023926 -0.0928525,0.023926 -0.0363759,0 -0.0687874,-0.00834629 -0.0973039,-0.0250389 -0.0285165,-0.0166926 -0.0506342,-0.0400622 -0.066353,-0.0700393 -0.0157189,-0.0299075 -0.0235783,-0.0638491 -0.0235783,-0.101686 0,-0.0378365 0.00799853,-0.0714999 0.0239956,-0.100921 0.0159275,-0.0294902 0.0380452,-0.0525816 0.0662835,-0.0692742 0.0282383,-0.0167621 0.060302,-0.0251084 0.096191,-0.0251084 0.0354022,0 0.0664226,0.00813764 0.0932003,0.0243434 0.0267777,0.0162057 0.0475739,0.0388103 0.062319,0.0678136l0 -0.249832 0.0493822 0zm-0.195303 0.507037c0.0279601,0 0.0530685,-0.00653793 0.0751862,-0.0195442 0.0220481,-0.0130063 0.0393667,-0.0310899 0.0519557,-0.0541814 0.0125194,-0.0230914 0.0187792,-0.0493822 0.0187792,-0.0788725 0,-0.0294207 -0.00625972,-0.0558506 -0.0187792,-0.0792202 -0.012589,-0.0233001 -0.0299075,-0.0415924 -0.0519557,-0.0548769 -0.0221177,-0.0132845 -0.0472261,-0.019892 -0.0751862,-0.019892 -0.0280296,0 -0.0530685,0.00660748 -0.0751862,0.019892 -0.0221177,0.0132845 -0.0395753,0.0315768 -0.0523034,0.0548769 -0.0127976,0.0233696 -0.0191965,0.0497995 -0.0191965,0.0792202 0,0.0294902 0.00625972,0.0557811 0.0187792,0.0788725 0.0125194,0.0230914 0.0299771,0.041175 0.052373,0.0541814 0.0223263,0.0130063 0.0475043,0.0195442 0.075534,0.0195442zm0.58584 0.039784l-0.000695524 -0.0648229c-0.015232,0.022535 -0.035124,0.0393667 -0.059676,0.0504255 -0.0246216,0.0110588 -0.0528599,0.016623 -0.0847844,0.016623 -0.0260126,0 -0.0490345,-0.00507733 -0.0689265,-0.0150929 -0.019892,-0.0100851 -0.0351935,-0.0239956 -0.0460437,-0.0416619 -0.0107806,-0.0176663 -0.0162057,-0.0376279 -0.0162057,-0.059676 0,-0.0334547 0.0128672,-0.0597455 0.0386712,-0.0788725 0.025804,-0.0191965 0.0613453,-0.0287252 0.106485,-0.0287252l0.129715 0 0 -0.0294902c0,-0.030464 -0.00904182,-0.0540422 -0.0272646,-0.0707348 -0.0181532,-0.0167621 -0.0447222,-0.0251084 -0.079568,-0.0251084 -0.0412446,0 -0.0827674,0.0155102 -0.124568,0.046461l-0.0221177 -0.0339416c0.0260822,-0.0181532 0.0508428,-0.0315073 0.0744211,-0.0401318 0.0236478,-0.0086245 0.0506342,-0.0128672 0.0810981,-0.0128672 0.0466697,0 0.0827674,0.0116153 0.108363,0.0349849 0.0255257,0.0233001 0.0385321,0.055642 0.0390189,0.0968866l0.000765077 0.255744 -0.0486867 0zm-0.136323 -0.0390885c0.0344285,0 0.0635014,-0.00792898 0.0873579,-0.023926 0.0237869,-0.0159971 0.0399231,-0.0384625 0.0482694,-0.0673963l0 -0.0530685 -0.124568 0c-0.033872,0 -0.059676,0.00563375 -0.0773423,0.0169012 -0.0177359,0.011337 -0.026569,0.0282383 -0.026569,0.0508428 0,0.0230914 0.0084854,0.0416619 0.0254562,0.055642 0.0169012,0.0140496 0.0394362,0.0210048 0.0673963,0.0210048zm0.668469 -0.507733l0 0.546821 -0.0493822 0 0 -0.0884707c-0.0147451,0.0290034 -0.0354022,0.0514688 -0.0619017,0.0674659 -0.026569,0.0159971 -0.0575199,0.023926 -0.0928525,0.023926 -0.0363759,0 -0.0687874,-0.00834629 -0.0973039,-0.0250389 -0.0285165,-0.0166926 -0.0506342,-0.0400622 -0.066353,-0.0700393 -0.0157189,-0.0299075 -0.0235783,-0.0638491 -0.0235783,-0.101686 0,-0.0378365 0.00799853,-0.0714999 0.0239956,-0.100921 0.0159275,-0.0294902 0.0380452,-0.0525816 0.0662835,-0.0692742 0.0282383,-0.0167621 0.060302,-0.0251084 0.096191,-0.0251084 0.0354022,0 0.0664226,0.00813764 0.0932003,0.0243434 0.0267777,0.0162057 0.0475739,0.0388103 0.062319,0.0678136l0 -0.249832 0.0493822 0zm-0.195303 0.507037c0.0279601,0 0.0530685,-0.00653793 0.0751862,-0.0195442 0.0220481,-0.0130063 0.0393667,-0.0310899 0.0519557,-0.0541814 0.0125194,-0.0230914 0.0187792,-0.0493822 0.0187792,-0.0788725 0,-0.0294207 -0.00625972,-0.0558506 -0.0187792,-0.0792202 -0.012589,-0.0233001 -0.0299075,-0.0415924 -0.0519557,-0.0548769 -0.0221177,-0.0132845 -0.0472261,-0.019892 -0.0751862,-0.019892 -0.0280296,0 -0.0530685,0.00660748 -0.0751862,0.019892 -0.0221177,0.0132845 -0.0395753,0.0315768 -0.0523034,0.0548769 -0.0127976,0.0233696 -0.0191965,0.0497995 -0.0191965,0.0792202 0,0.0294902 0.00625972,0.0557811 0.0187792,0.0788725 0.0125194,0.0230914 0.0299771,0.041175 0.052373,0.0541814 0.0223263,0.0130063 0.0475043,0.0195442 0.075534,0.0195442zm0.493753 -0.347832c0.0599542,0 0.10565,0.0189878 0.137088,0.0571026 0.0314377,0.0380452 0.0459046,0.0893053 0.0434703,0.153641l-0.322028 0c0.00340807,0.0412446 0.0186401,0.0745602 0.045696,0.0998773 0.0269863,0.0253171 0.0603715,0.0379061 0.100225,0.0379061 0.024552,0 0.0473652,-0.0043818 0.0685092,-0.013215 0.0211439,-0.00883316 0.0392971,-0.0214222 0.0545291,-0.0376279l0.0280296 0.0280296c-0.0187096,0.0201702 -0.041175,0.03575 -0.0674659,0.0468088 -0.0262908,0.0110588 -0.0551551,0.0165535 -0.0865928,0.0165535 -0.0373497,0 -0.0704566,-0.00820719 -0.09946,-0.0246911 -0.0290034,-0.0164144 -0.051747,-0.0394362 -0.0681614,-0.0689265 -0.0164839,-0.0294207 -0.0246911,-0.0630841 -0.0246911,-0.100921 0,-0.0373497 0.00820719,-0.0708739 0.0246911,-0.100642 0.0164144,-0.0296989 0.039158,-0.0527903 0.0681614,-0.0692742 0.0290034,-0.0164144 0.0616235,-0.0246216 0.0979994,-0.0246216zm0.136323 0.172421c-0.00243434,-0.0402709 -0.015858,-0.0723345 -0.0401318,-0.096191 -0.0243434,-0.0237869 -0.0561288,-0.03575 -0.0954259,-0.03575 -0.0388103,0 -0.0712913,0.0120326 -0.0973039,0.0360977 -0.0260126,0.0241347 -0.0410359,0.0560593 -0.0449309,0.0958433l0.277792 0zm0.843115 -0.172421c0.045696,0 0.0813068,0.013215 0.106902,0.039784 0.0255257,0.0264995 0.0383234,0.0633623 0.0383234,0.110519l0 0.237313 -0.0501473 0 0 -0.225489c0,-0.0368628 -0.009946,-0.0655184 -0.029838,-0.0858973 -0.019892,-0.0203789 -0.0472957,-0.0306031 -0.082211,-0.0306031 -0.0412446,0.00104329 -0.0735169,0.015232 -0.0968866,0.0427748 -0.0233001,0.0275428 -0.0349849,0.0638491 -0.0349849,0.109058l0 0.190156 -0.0501473 0 0 -0.225489c0,-0.0368628 -0.009946,-0.0655184 -0.029838,-0.0858973 -0.019892,-0.0203789 -0.0472957,-0.0306031 -0.0821414,-0.0306031 -0.0413142,0.00104329 -0.0737256,0.015232 -0.0973039,0.0427748 -0.0235783,0.0275428 -0.0354022,0.0638491 -0.0354022,0.109058l0 0.190156 -0.0493822 0 0 -0.386155 0.0493822 0 0 0.0906268c0.0127976,-0.030464 0.031855,-0.0532772 0.0571721,-0.0685092 0.0252475,-0.015232 0.0561288,-0.0230914 0.0924352,-0.0235783 0.0368628,0 0.0674659,0.00904182 0.0918092,0.0272646 0.0242738,0.0181532 0.04041,0.0436789 0.0482694,0.0766468 0.0117544,-0.0344285 0.0308117,-0.0602324 0.0571026,-0.0774119 0.0262908,-0.0171795 0.0585632,-0.0260126 0.0968866,-0.0264995zm0.431921 0c0.0372801,0 0.0707348,0.00820719 0.100225,0.0246216 0.0294207,0.0164839 0.0525121,0.0394362 0.0692742,0.0689265 0.0166926,0.0294902 0.0250389,0.0628754 0.0250389,0.100225 0,0.0378365 -0.00834629,0.071639 -0.0250389,0.101338 -0.0167621,0.0297684 -0.0398535,0.0528599 -0.0692742,0.0692742 -0.0294902,0.0164839 -0.062945,0.0246911 -0.100225,0.0246911 -0.0373497,0 -0.0708044,-0.00820719 -0.100225,-0.0246911 -0.0294902,-0.0164144 -0.0525816,-0.0395058 -0.0693438,-0.0692742 -0.0166926,-0.0296989 -0.0250389,-0.0635014 -0.0250389,-0.101338 0,-0.0373497 0.00834629,-0.0707348 0.0250389,-0.100225 0.0167621,-0.0294902 0.0398535,-0.0524425 0.0693438,-0.0689265 0.0294207,-0.0164144 0.0628754,-0.0246216 0.100225,-0.0246216zm0 0.0427052c-0.0280296,0 -0.0530685,0.00639882 -0.0751862,0.0191965 -0.0221177,0.0127281 -0.0392971,0.0306726 -0.0516079,0.053764 -0.0123108,0.0230914 -0.0184314,0.0493822 -0.0184314,0.0788725 0,0.0299771 0.00612061,0.0564766 0.0184314,0.079568 0.0123108,0.0230914 0.0294902,0.0410359 0.0516079,0.0538336 0.0221177,0.0127281 0.0471566,0.0191269 0.0751862,0.0191269 0.0279601,0 0.052999,-0.00639882 0.0751166,-0.0191269 0.0221177,-0.0127976 0.0392971,-0.0307422 0.0516079,-0.0538336 0.0123108,-0.0230914 0.0184314,-0.0495909 0.0184314,-0.079568 0,-0.0294902 -0.00612061,-0.0557811 -0.0184314,-0.0788725 -0.0123108,-0.0230914 -0.0294902,-0.0410359 -0.0516079,-0.053764 -0.0221177,-0.0127976 -0.0471566,-0.0191965 -0.0751166,-0.0191965zm0.501125 -0.0427052c0.0461828,0 0.0824196,0.0133541 0.10871,0.0401318 0.0262908,0.0267777 0.0394362,0.0635014 0.0394362,0.110171l0 0.237313 -0.0501473 0 0 -0.225489c0,-0.0363759 -0.0100851,-0.0648924 -0.0301858,-0.0855495 -0.0201702,-0.0205875 -0.0481998,-0.0309508 -0.0840193,-0.0309508 -0.0398535,0.00055642 -0.071639,0.0127976 -0.0954955,0.0368628 -0.0237869,0.0240651 -0.0374192,0.0565461 -0.0408968,0.0973039l0 0.207823 -0.0493822 0 0 -0.386155 0.0493822 0 0 0.0898618c0.0132845,-0.0299075 0.0328288,-0.0525121 0.0586327,-0.0677441 0.025804,-0.015232 0.0571026,-0.0230914 0.0939653,-0.0235783zm0.280018 0.0014606l0.0493822 0 0 0.386155 -0.0493822 0 0 -0.386155zm0.0251084 -0.145921c0.00980689,0 0.0179445,0.00326896 0.0242738,0.009946 0.00639882,0.00660748 0.00959824,0.0148147 0.00959824,0.0246911 0,0.00980689 -0.00333852,0.0181532 -0.009946,0.0250389 -0.00660748,0.00688569 -0.014606,0.0102938 -0.023926,0.0102938 -0.00987645,0 -0.0180836,-0.00340807 -0.0246911,-0.0102938 -0.00667703,-0.00688569 -0.009946,-0.015232 -0.009946,-0.0250389 0,-0.00987645 0.00326896,-0.0180836 0.009946,-0.0246911 0.00660748,-0.00667703 0.0148147,-0.009946 0.0246911,-0.009946zm0.362577 0.505577c-0.026569,0.0181532 -0.055016,0.0277514 -0.08548,0.0287252 -0.0294902,0 -0.0528599,-0.00911137 -0.0700393,-0.0272646 -0.0171795,-0.0182227 -0.025804,-0.0454873 -0.025804,-0.0817937l0 -0.22994 -0.0552942 0 -0.000695524 -0.0383234 0.0559897 0 0 -0.0995295 0.0493822 0 0 0.0995295 0.125264 -0.000765077 0 0.0390885 -0.125264 0 0 0.221803c0,0.0476434 0.0176663,0.0714999 0.0530685,0.0714999 0.0196833,0 0.0410359,-0.00688569 0.0641274,-0.0206571l0.0147451 0.0376279zm0.24392 -0.361116c0.0372801,0 0.0707348,0.00820719 0.100225,0.0246216 0.0294207,0.0164839 0.0525121,0.0394362 0.0692742,0.0689265 0.0166926,0.0294902 0.0250389,0.0628754 0.0250389,0.100225 0,0.0378365 -0.00834629,0.071639 -0.0250389,0.101338 -0.0167621,0.0297684 -0.0398535,0.0528599 -0.0692742,0.0692742 -0.0294902,0.0164839 -0.062945,0.0246911 -0.100225,0.0246911 -0.0373497,0 -0.0708044,-0.00820719 -0.100225,-0.0246911 -0.0294902,-0.0164144 -0.0525816,-0.0395058 -0.0693438,-0.0692742 -0.0166926,-0.0296989 -0.0250389,-0.0635014 -0.0250389,-0.101338 0,-0.0373497 0.00834629,-0.0707348 0.0250389,-0.100225 0.0167621,-0.0294902 0.0398535,-0.0524425 0.0693438,-0.0689265 0.0294207,-0.0164144 0.0628754,-0.0246216 0.100225,-0.0246216zm0 0.0427052c-0.0280296,0 -0.0530685,0.00639882 -0.0751862,0.0191965 -0.0221177,0.0127281 -0.0392971,0.0306726 -0.0516079,0.053764 -0.0123108,0.0230914 -0.0184314,0.0493822 -0.0184314,0.0788725 0,0.0299771 0.00612061,0.0564766 0.0184314,0.079568 0.0123108,0.0230914 0.0294902,0.0410359 0.0516079,0.0538336 0.0221177,0.0127281 0.0471566,0.0191269 0.0751862,0.0191269 0.0279601,0 0.052999,-0.00639882 0.0751166,-0.0191269 0.0221177,-0.0127976 0.0392971,-0.0307422 0.0516079,-0.0538336 0.0123108,-0.0230914 0.0184314,-0.0495909 0.0184314,-0.079568 0,-0.0294902 -0.00612061,-0.0557811 -0.0184314,-0.0788725 -0.0123108,-0.0230914 -0.0294902,-0.0410359 -0.0516079,-0.053764 -0.0221177,-0.0127976 -0.0471566,-0.0191965 -0.0751166,-0.0191965zm0.348527 0.0486172c0.0127976,-0.0294207 0.0310899,-0.0519557 0.0549464,-0.0673963 0.0237869,-0.0155102 0.0524425,-0.0234392 0.0858277,-0.023926l0 0.0463915c-0.0407577,-0.000486867 -0.0735865,0.0114066 -0.0983472,0.03575 -0.0248302,0.0243434 -0.0389494,0.0573808 -0.042427,0.0991122l0 0.206362 -0.0493822 0 0 -0.386155 0.0493822 0 0 0.0898618zm0.462802 0.296293l-0.000695524 -0.0648229c-0.015232,0.022535 -0.035124,0.0393667 -0.059676,0.0504255 -0.0246216,0.0110588 -0.0528599,0.016623 -0.0847844,0.016623 -0.0260126,0 -0.0490345,-0.00507733 -0.0689265,-0.0150929 -0.019892,-0.0100851 -0.0351935,-0.0239956 -0.0460437,-0.0416619 -0.0107806,-0.0176663 -0.0162057,-0.0376279 -0.0162057,-0.059676 0,-0.0334547 0.0128672,-0.0597455 0.0386712,-0.0788725 0.025804,-0.0191965 0.0613453,-0.0287252 0.106485,-0.0287252l0.129715 0 0 -0.0294902c0,-0.030464 -0.00904182,-0.0540422 -0.0272646,-0.0707348 -0.0181532,-0.0167621 -0.0447222,-0.0251084 -0.079568,-0.0251084 -0.0412446,0 -0.0827674,0.0155102 -0.124568,0.046461l-0.0221177 -0.0339416c0.0260822,-0.0181532 0.0508428,-0.0315073 0.0744211,-0.0401318 0.0236478,-0.0086245 0.0506342,-0.0128672 0.0810981,-0.0128672 0.0466697,0 0.0827674,0.0116153 0.108363,0.0349849 0.0255257,0.0233001 0.0385321,0.055642 0.0390189,0.0968866l0.000765077 0.255744 -0.0486867 0zm-0.136323 -0.0390885c0.0344285,0 0.0635014,-0.00792898 0.0873579,-0.023926 0.0237869,-0.0159971 0.0399231,-0.0384625 0.0482694,-0.0673963l0 -0.0530685 -0.124568 0c-0.033872,0 -0.059676,0.00563375 -0.0773423,0.0169012 -0.0177359,0.011337 -0.026569,0.0282383 -0.026569,0.0508428 0,0.0230914 0.0084854,0.0416619 0.0254562,0.055642 0.0169012,0.0140496 0.0394362,0.0210048 0.0673963,0.0210048zm0.0847844 -0.511419l0.0508428 0.0221177 -0.0928525 0.073656 -0.0442354 -0.00514688 0.086245 -0.0906268zm0.163587 0.164352l0.0530685 0 0.128255 0.336773 0.126725 -0.336773 0.0516079 0 -0.153294 0.386155 -0.0523034 0 -0.154059 -0.386155zm0.580763 -0.0014606c0.0599542,0 0.10565,0.0189878 0.137088,0.0571026 0.0314377,0.0380452 0.0459046,0.0893053 0.0434703,0.153641l-0.322028 0c0.00340807,0.0412446 0.0186401,0.0745602 0.045696,0.0998773 0.0269863,0.0253171 0.0603715,0.0379061 0.100225,0.0379061 0.024552,0 0.0473652,-0.0043818 0.0685092,-0.013215 0.0211439,-0.00883316 0.0392971,-0.0214222 0.0545291,-0.0376279l0.0280296 0.0280296c-0.0187096,0.0201702 -0.041175,0.03575 -0.0674659,0.0468088 -0.0262908,0.0110588 -0.0551551,0.0165535 -0.0865928,0.0165535 -0.0373497,0 -0.0704566,-0.00820719 -0.09946,-0.0246911 -0.0290034,-0.0164144 -0.051747,-0.0394362 -0.0681614,-0.0689265 -0.0164839,-0.0294207 -0.0246911,-0.0630841 -0.0246911,-0.100921 0,-0.0373497 0.00820719,-0.0708739 0.0246911,-0.100642 0.0164144,-0.0296989 0.039158,-0.0527903 0.0681614,-0.0692742 0.0290034,-0.0164144 0.0616235,-0.0246216 0.0979994,-0.0246216zm0.136323 0.172421c-0.00243434,-0.0402709 -0.015858,-0.0723345 -0.0401318,-0.096191 -0.0243434,-0.0237869 -0.0561288,-0.03575 -0.0954259,-0.03575 -0.0388103,0 -0.0712913,0.0120326 -0.0973039,0.0360977 -0.0260126,0.0241347 -0.0410359,0.0560593 -0.0449309,0.0958433l0.277792 0zm0.151068 -0.331626l0.0493822 0 0 0.546821 -0.0493822 0 0 -0.546821z"/>
 </g>
</svg>
